<svg width="24" height="25" viewBox="0 0 24 25" fill="none" xmlns="http://www.w3.org/2000/svg">
<g clip-path="url(#clip0_10340_4185)">
<path d="M21 1.48438H3C1.34601 1.48438 0 2.83038 0 4.48438V20.4843C0 22.1383 1.34601 23.4843 3 23.4843H21C22.654 23.4843 24 22.1383 24 20.4843V4.48438C24 2.83038 22.654 1.48438 21 1.48438Z" fill="#CFD8DC"/>
<path d="M3 1.48438H21C22.6569 1.48438 24 2.82745 24 4.48438V7.98444H0V4.48438C0 2.82745 1.34308 1.48438 3 1.48438Z" fill="#2196F3"/>
<path d="M13 9.98438H16.5001V12.4845H13V9.98438Z" fill="white"/>
<path d="M7.5 9.98438H11.0001V12.4845H7.5V9.98438Z" fill="white"/>
<path d="M2 9.98438H5.49988V12.4845H2V9.98438Z" fill="white"/>
<path d="M2 14.4844H5.49988V16.9845H2V14.4844Z" fill="white"/>
<path d="M7.5 14.4844H11.0001V16.9845H7.5V14.4844Z" fill="white"/>
<path d="M7.5 18.9844H11.0001V21.4845H7.5V18.9844Z" fill="white"/>
<path d="M13 18.9844H16.5001V21.4845H13V18.9844Z" fill="white"/>
<path d="M13 14.4844H16.5001V16.9845H13V14.4844Z" fill="white"/>
<path d="M18.5 14.4844H21.9999V16.9845H18.5V14.4844Z" fill="white"/>
<path d="M18.5 9.98438H21.9999V12.4845H18.5V9.98438Z" fill="white"/>
<path d="M2 20.4844V18.9844H5.49988V21.4845H2.99994C2.44897 21.4845 2 21.0355 2 20.4844Z" fill="white"/>
<path d="M20.9999 21.4845H18.5V18.9844H21.9999V20.4844C21.9999 21.0355 21.5509 21.4845 20.9999 21.4845Z" fill="white"/>
</g>
<defs>
<clipPath id="clip0_10340_4185">
<rect width="24" height="24" fill="white" transform="translate(0 0.5)"/>
</clipPath>
</defs>
</svg>
