<svg width="20" height="21" viewBox="0 0 20 21" fill="none" xmlns="http://www.w3.org/2000/svg">
<g clip-path="url(#clip0_10340_4059)">
<path d="M15 10.5C12.2383 10.5 10 12.7383 10 15.5C10 18.2617 12.2383 20.5 15 20.5C17.7617 20.5 20 18.2617 20 15.5C20 12.7383 17.7617 10.5 15 10.5ZM17.66 15.6683L15.8158 17.4383C15.4392 17.81 14.9392 17.9975 14.4383 17.9975C13.9375 17.9975 13.4358 17.81 13.0525 17.4358L12.1092 16.5117C11.78 16.1892 11.7758 15.6617 12.0975 15.3333C12.4192 15.0033 12.9467 14.9992 13.2758 15.3217L14.2183 16.245C14.3383 16.3633 14.5342 16.3608 14.6533 16.2433L16.5058 14.465C16.8367 14.1467 17.365 14.1558 17.6842 14.4892C18.0025 14.8208 17.9917 15.3492 17.66 15.6683ZM8.33333 15.5C8.33333 13.5083 9.20667 11.7217 10.5908 10.5H4.16667C3.70583 10.5 3.33333 10.1275 3.33333 9.66667C3.33333 9.20583 3.70583 8.83333 4.16667 8.83333H10.8333C11.2942 8.83333 11.6667 9.20583 11.6667 9.66667C11.6667 9.68667 11.6658 9.70667 11.6642 9.72667C12.645 9.15833 13.7842 8.83333 15 8.83333V4.66667C15 2.36917 13.1308 0.5 10.8333 0.5H4.16667C1.86917 0.5 0 2.36917 0 4.66667V16.3333C0 18.6308 1.86917 20.5 4.16667 20.5H10.5908C9.20667 19.2783 8.33333 17.4917 8.33333 15.5ZM4.16667 4.66667H10.8333C11.2942 4.66667 11.6667 5.03917 11.6667 5.5C11.6667 5.96083 11.2942 6.33333 10.8333 6.33333H4.16667C3.70583 6.33333 3.33333 5.96083 3.33333 5.5C3.33333 5.03917 3.70583 4.66667 4.16667 4.66667ZM5.83333 14.6667H4.16667C3.70583 14.6667 3.33333 14.2942 3.33333 13.8333C3.33333 13.3725 3.70583 13 4.16667 13H5.83333C6.29417 13 6.66667 13.3725 6.66667 13.8333C6.66667 14.2942 6.29417 14.6667 5.83333 14.6667Z" fill="#4598F8"/>
</g>
<defs>
<clipPath id="clip0_10340_4059">
<rect width="20" height="20" fill="white" transform="translate(0 0.5)"/>
</clipPath>
</defs>
</svg>
