<svg width="39" height="38" viewBox="0 0 39 38" fill="none" xmlns="http://www.w3.org/2000/svg">
<path d="M27.4141 3.5625H11.5807C9.17881 3.5625 7.22656 5.51475 7.22656 7.91667V30.0833C7.22656 32.4853 9.17881 34.4375 11.5807 34.4375H21.3515C22.5152 34.4375 23.6077 33.9847 24.4311 33.1613L30.4921 27.1003C31.3154 26.277 31.7682 25.1845 31.7682 24.0208V7.91667C31.7682 5.51475 29.816 3.5625 27.4141 3.5625Z" fill="#BAD7FF"/>
<path d="M24.4319 33.1615L30.4929 27.1005C31.2861 26.3072 31.7247 25.2622 31.7564 24.146H24.1849C22.657 24.146 21.4141 25.3889 21.4141 26.9168V34.4313C22.5541 34.4155 23.6244 33.969 24.4319 33.1615Z" fill="#549BFF"/>
<path d="M11.9766 11.0835C11.9766 10.428 12.5086 9.896 13.1641 9.896H25.8307C26.4862 9.896 27.0182 10.428 27.0182 11.0835C27.0182 11.739 26.4862 12.271 25.8307 12.271H13.1641C12.5086 12.271 11.9766 11.739 11.9766 11.0835ZM25.8307 14.646H13.1641C12.5086 14.646 11.9766 15.178 11.9766 15.8335C11.9766 16.489 12.5086 17.021 13.1641 17.021H25.8307C26.4862 17.021 27.0182 16.489 27.0182 15.8335C27.0182 15.178 26.4862 14.646 25.8307 14.646ZM17.9141 19.396H13.1641C12.5086 19.396 11.9766 19.928 11.9766 20.5835C11.9766 21.239 12.5086 21.771 13.1641 21.771H17.9141C18.5696 21.771 19.1016 21.239 19.1016 20.5835C19.1016 19.928 18.5696 19.396 17.9141 19.396Z" fill="#549BFF"/>
</svg>
