<svg width="39" height="38" viewBox="0 0 39 38" fill="none" xmlns="http://www.w3.org/2000/svg">
<g clip-path="url(#clip0_10340_4430)">
<path d="M7.79664 21.1705L4.50341 30.5344L3.28125 31.7565L8.63695 37.1122L15.8201 29.929L21.0889 20.5131L12.1925 18.6837C10.3118 18.2968 8.43374 19.3592 7.79664 21.1705Z" fill="#FFCBBE"/>
<path d="M12.7949 27.8988L13.0105 28.1144L18.5174 22.6075L16.7033 20.7935L12.7948 24.702C11.9121 25.5847 11.9121 27.016 12.7949 27.8988Z" fill="#EAAC9D"/>
<path d="M32.3267 21.4577C37.0352 16.7492 36.8078 8.88778 31.8188 3.89879C26.8299 -1.09021 18.9685 -1.31757 14.2599 3.39096C9.55139 8.09949 9.77876 15.9609 14.7678 20.9499C19.7567 25.9389 27.6181 26.1662 32.3267 21.4577Z" fill="#80CB8E"/>
<path d="M25.4782 24.7578C21.7378 25.2073 17.7398 23.9251 14.7633 20.9494C9.77361 15.9598 9.54651 8.09747 14.2556 3.38843C16.8865 0.757528 20.5007 -0.332819 24.0492 0.0877039C21.5177 0.391259 19.1031 1.48769 17.2023 3.38843C12.4925 8.09754 12.7203 15.9598 17.71 20.9494C19.9127 23.1522 22.6744 24.426 25.4782 24.7578Z" fill="#6EC17D"/>
<path d="M22.9686 20.2259C22.5118 20.2259 22.0756 20.0212 21.7835 19.663L16.0627 12.6455C15.5291 11.9909 15.6272 11.0277 16.2818 10.4941C16.9363 9.96052 17.8996 10.0585 18.4332 10.7131L22.6845 15.9279L27.6377 6.3975C28.0272 5.64811 28.9504 5.35643 29.6998 5.74586C30.4492 6.13536 30.741 7.05857 30.3515 7.80795L24.3257 19.402C24.0883 19.8588 23.6371 20.1655 23.125 20.218C23.0727 20.2233 23.0205 20.2259 22.9686 20.2259Z" fill="#F9F6F9"/>
<path d="M21.0245 19.1981L5.875 34.3476L9.5273 38L11.5275 35.9998L13.3459 36.0335C16.8878 36.0985 19.8809 33.4248 20.2154 29.8991L20.4005 27.9425L25.0847 23.2583C25.6452 22.6978 25.925 21.9634 25.9257 21.2288C25.9257 20.4937 25.6452 19.7585 25.0847 19.1981C23.9637 18.0772 22.1454 18.0772 21.0245 19.1981Z" fill="#FFCBBE"/>
<path d="M19.0861 26.7916C18.6556 31.3394 14.7941 34.7879 10.2268 34.7041L8.22656 36.7043L9.52213 37.9998L11.5223 35.9996L13.3407 36.0334C16.8826 36.0984 19.8757 33.4247 20.2102 29.899L20.3953 27.9424L25.0796 23.2581C25.64 22.6977 25.9199 21.9632 25.9205 21.2287C25.9205 20.4936 25.6407 19.7591 25.0796 19.198C24.8529 18.9713 24.5983 18.7908 24.3269 18.6558C24.5256 19.0571 24.6244 19.4948 24.6243 19.9325C24.6243 20.6676 24.3444 21.4021 23.784 21.9626L19.0998 26.6468L19.0861 26.7916Z" fill="#EAAC9D"/>
</g>
<defs>
<clipPath id="clip0_10340_4430">
<rect width="38" height="38" fill="white" transform="translate(0.5)"/>
</clipPath>
</defs>
</svg>
