<svg width="23" height="12" viewBox="0 0 23 12" fill="none" xmlns="http://www.w3.org/2000/svg">
<g clip-path="url(#clip0_10340_4264)">
<path d="M21.8173 4.97889C19.3951 1.86016 15.3859 0 11.0838 0C6.78166 0 2.77243 1.86016 0.350264 4.97889C0.123247 5.27086 0 5.63016 0 6C0 6.36984 0.123247 6.72914 0.350264 7.02111C2.77243 10.1398 6.78166 12 11.0838 12C15.3859 12 19.3951 10.1398 21.8173 7.02111C22.0443 6.72914 22.1675 6.36984 22.1675 6C22.1675 5.63016 22.0443 5.27086 21.8173 4.97889ZM11.0838 10.0172C10.2893 10.0172 9.51258 9.78155 8.85196 9.34014C8.19135 8.89873 7.67646 8.27133 7.37241 7.5373C7.06836 6.80326 6.98881 5.99554 7.14381 5.21629C7.29881 4.43704 7.68141 3.72125 8.24322 3.15945C8.80503 2.59764 9.52081 2.21504 10.3001 2.06004C11.0793 1.90504 11.887 1.98459 12.6211 2.28864C13.3551 2.59269 13.9825 3.10757 14.4239 3.76819C14.8653 4.42881 15.1009 5.20548 15.1009 6C15.1002 7.06518 14.6767 8.08651 13.9235 8.83971C13.1703 9.59291 12.149 10.0164 11.0838 10.0172ZM14.3094 6C14.3094 6.63796 14.1202 7.2616 13.7658 7.79204C13.4113 8.32249 12.9076 8.73592 12.3182 8.98006C11.7288 9.2242 11.0802 9.28808 10.4545 9.16362C9.82879 9.03916 9.25404 8.73195 8.80293 8.28084C8.35183 7.82973 8.04462 7.25499 7.92016 6.62928C7.7957 6.00358 7.85957 5.35502 8.10371 4.76562C8.34785 4.17622 8.76128 3.67245 9.29173 3.31802C9.82217 2.96358 10.4458 2.77441 11.0838 2.77441C11.9392 2.77456 12.7596 3.11444 13.3644 3.71933C13.9693 4.32421 14.3092 5.14457 14.3094 6Z" fill="url(#paint0_linear_10340_4264)"/>
</g>
<defs>
<linearGradient id="paint0_linear_10340_4264" x1="-2.14696e-07" y1="6" x2="22.1675" y2="6" gradientUnits="userSpaceOnUse">
<stop stop-color="#9CFFAC"/>
<stop offset="1" stop-color="#00B59C"/>
</linearGradient>
<clipPath id="clip0_10340_4264">
<rect width="23" height="12" fill="white"/>
</clipPath>
</defs>
</svg>
