<svg width="21" height="21" viewBox="0 0 21 21" fill="none" xmlns="http://www.w3.org/2000/svg">
<g clip-path="url(#clip0_10340_4121)">
<path d="M10.5 11.3333C10.5 12.7142 8.26167 13.8333 5.5 13.8333C2.73833 13.8333 0.5 12.7142 0.5 11.3333C0.5 9.9525 2.73833 8.83333 5.5 8.83333C8.26167 8.83333 10.5 9.9525 10.5 11.3333ZM10.5 15.9167V17.5833C10.5 19.2458 8.35083 20.5 5.5 20.5C2.64917 20.5 0.5 19.2458 0.5 17.5833V15.9167C0.5 17.5592 2.58333 18.8333 5.5 18.8333C8.41667 18.8333 10.5 17.5592 10.5 15.9167ZM10.5 12.5833V14.25C10.5 15.9125 8.35083 17.1667 5.5 17.1667C2.64917 17.1667 0.5 15.9125 0.5 14.25V12.5833C0.5 14.2258 2.58333 15.5 5.5 15.5C8.41667 15.5 10.5 14.2258 10.5 12.5833ZM15.5 5.5H8.83333V7.16667H15.5V5.5ZM16.3333 0.5H8C5.7025 0.5 3.83333 2.36917 3.83333 4.66667V7.2825C4.36083 7.20667 4.91833 7.16667 5.5 7.16667C6.08167 7.16667 6.63917 7.20667 7.16667 7.2825V5.5C7.16667 4.58083 7.91417 3.83333 8.83333 3.83333H15.5C16.4192 3.83333 17.1667 4.58083 17.1667 5.5V7.16667C17.1667 8.08583 16.4192 8.83333 15.5 8.83333H10.9425C11.4883 9.31167 11.8692 9.875 12.0492 10.5H12.9992C13.46 10.5 13.8325 10.8733 13.8325 11.3333V12.1667C13.8325 12.6267 13.46 13 12.9992 13H12.1658V14.6667H16.3325C16.7933 14.6667 17.1658 15.04 17.1658 15.5C17.1658 15.96 16.7933 16.3333 16.3325 16.3333H12.1658V17.5833C12.1658 18.7208 11.6517 19.7242 10.76 20.5H16.3325C18.63 20.5 20.4992 18.6308 20.4992 16.3333V4.66667C20.4992 2.36917 18.6308 0.5 16.3333 0.5ZM17.1667 12.1667C17.1667 12.6267 16.7942 13 16.3333 13C15.8725 13 15.5 12.6267 15.5 12.1667V11.3333C15.5 10.8733 15.8725 10.5 16.3333 10.5C16.7942 10.5 17.1667 10.8733 17.1667 11.3333V12.1667Z" fill="#4598F8"/>
</g>
<defs>
<clipPath id="clip0_10340_4121">
<rect width="20" height="20" fill="white" transform="translate(0.5 0.5)"/>
</clipPath>
</defs>
</svg>
