<svg width="38" height="38" viewBox="0 0 38 38" fill="none" xmlns="http://www.w3.org/2000/svg">
<g clip-path="url(#clip0_10340_4450)">
<path d="M19.001 29.7667C24.9473 29.7667 29.7677 24.9463 29.7677 19.0001C29.7677 13.0538 24.9473 8.2334 19.001 8.2334C13.0548 8.2334 8.23438 13.0538 8.23438 19.0001C8.23438 24.9463 13.0548 29.7667 19.001 29.7667Z" fill="#4FBA6F"/>
<path d="M0.632829 19C0.629452 16.4882 1.14336 14.0026 2.14254 11.6981C3.14171 9.39356 4.60475 7.31947 6.4405 5.60504L5.17383 4.33837C5.12678 4.29342 5.09349 4.23601 5.07782 4.17285C5.06215 4.1097 5.06476 4.04339 5.08534 3.98165C5.10591 3.91992 5.14361 3.86531 5.19404 3.82418C5.24447 3.78306 5.30555 3.75711 5.37016 3.74937L10.3735 3.16671C10.4263 3.1616 10.4796 3.16825 10.5296 3.18618C10.5796 3.20411 10.6249 3.23287 10.6625 3.2704C10.7 3.30794 10.7288 3.35331 10.7467 3.40327C10.7646 3.45323 10.7713 3.50654 10.7662 3.55937L10.1835 8.56271C10.1751 8.62768 10.1484 8.68894 10.1067 8.73944C10.065 8.78994 10.0098 8.82762 9.94759 8.84814C9.88537 8.86866 9.81862 8.87119 9.75503 8.85542C9.69144 8.83966 9.63359 8.80625 9.58816 8.75904L8.23283 7.40371C5.66028 9.79561 3.95618 12.9751 3.38876 16.4417C2.82134 19.9082 3.42281 23.4651 5.0985 26.5524C6.7742 29.6396 9.42896 32.082 12.6449 33.4951C15.8609 34.9081 19.4555 35.2116 22.8628 34.3577C23.1501 34.2864 23.4534 34.3188 23.7191 34.4493C23.9848 34.5798 24.1959 34.7999 24.3151 35.0709C24.39 35.2384 24.4277 35.4202 24.4255 35.6037C24.4233 35.7873 24.3812 35.9681 24.3021 36.1338C24.2231 36.2994 24.109 36.4459 23.9678 36.5631C23.8265 36.6803 23.6615 36.7654 23.4841 36.8125C20.7749 37.4933 17.9461 37.5474 15.2128 36.9706C12.4796 36.3938 9.91382 35.2014 7.71063 33.4841C5.50745 31.7667 3.72486 29.5696 2.49841 27.0597C1.27195 24.5499 0.63392 21.7935 0.632829 19Z" fill="#F29C1F"/>
<path d="M34.8297 18.9999C34.8281 16.5922 34.2777 14.2165 33.2204 12.0533C32.1632 9.89018 30.6268 7.99642 28.728 6.51594C26.8293 5.03545 24.618 4.00718 22.2624 3.50923C19.9067 3.01129 17.4685 3.05677 15.1331 3.64222C14.8458 3.71356 14.5425 3.68113 14.2768 3.55065C14.0111 3.42017 13.8 3.20004 13.6808 2.92909C13.6059 2.76156 13.5682 2.57975 13.5704 2.39622C13.5726 2.2127 13.6147 2.03185 13.6938 1.8662C13.7728 1.70055 13.8869 1.55406 14.0281 1.43685C14.1694 1.31965 14.3344 1.23454 14.5118 1.18742C18.4579 0.195512 22.6217 0.542049 26.3495 2.17264C30.0774 3.80322 33.1583 6.62554 35.1085 10.1966C37.0588 13.7676 37.7681 17.8851 37.125 21.9029C36.4819 25.9206 34.5229 29.6111 31.5554 32.3949L32.8221 33.6616C32.8691 33.7065 32.9024 33.764 32.9181 33.8271C32.9337 33.8903 32.9311 33.9566 32.9106 34.0183C32.89 34.08 32.8523 34.1347 32.8019 34.1758C32.7514 34.2169 32.6903 34.2429 32.6257 34.2506L27.6224 34.8333C27.5696 34.8384 27.5163 34.8317 27.4663 34.8138C27.4163 34.7959 27.371 34.7671 27.3334 34.7296C27.2959 34.692 27.2671 34.6467 27.2492 34.5967C27.2313 34.5467 27.2246 34.4934 27.2297 34.4406L27.8124 29.4373C27.8208 29.3723 27.8475 29.311 27.8892 29.2605C27.9309 29.21 27.9861 29.1723 28.0483 29.1518C28.1105 29.1313 28.1773 29.1288 28.2409 29.1445C28.3045 29.1603 28.3623 29.1937 28.4077 29.2409L29.7631 30.5963C31.3626 29.118 32.6386 27.3244 33.5106 25.3286C34.3826 23.3328 34.8318 21.1779 34.8297 18.9999Z" fill="#F0C419"/>
<path d="M16.8188 24.0665C16.801 24.0665 16.7833 24.0665 16.7656 24.0665C16.5847 24.0588 16.4075 24.0125 16.246 23.9305C16.0845 23.8486 15.9425 23.733 15.8295 23.5915L14.2075 21.6915C14.1036 21.5616 14.0262 21.4125 13.9799 21.2528C13.9335 21.093 13.9191 20.9257 13.9374 20.7603C13.9557 20.595 14.0064 20.4349 14.0866 20.2891C14.1668 20.1434 14.2749 20.0148 14.4048 19.9109C14.5347 19.8069 14.6838 19.7295 14.8435 19.6832C15.0033 19.6368 15.1706 19.6224 15.336 19.6407C15.5013 19.6591 15.6614 19.7098 15.8072 19.79C15.9529 19.8702 16.0815 19.9783 16.1854 20.1082L16.8992 20.872L21.8766 14.9611C22.1108 14.7318 22.4249 14.6022 22.7527 14.5996C23.0805 14.5971 23.3965 14.7217 23.6343 14.9473C23.8721 15.1729 24.0132 15.4819 24.028 15.8094C24.0427 16.1369 23.9299 16.4573 23.7132 16.7034L17.7358 23.67C17.6178 23.7948 17.4757 23.8943 17.318 23.9625C17.1604 24.0306 16.9905 24.066 16.8188 24.0665Z" fill="#ECF0F1"/>
</g>
<defs>
<clipPath id="clip0_10340_4450">
<rect width="38" height="38" fill="white"/>
</clipPath>
</defs>
</svg>
