<svg width="20" height="21" viewBox="0 0 20 21" fill="none" xmlns="http://www.w3.org/2000/svg">
<g clip-path="url(#clip0_10340_3997)">
<path d="M11.6641 6.33333V0.883333C12.4349 1.17445 13.1351 1.62609 13.7182 2.20833L16.6216 5.11333C17.2045 5.69573 17.6565 6.39575 17.9474 7.16667H12.4974C12.2764 7.16667 12.0644 7.07887 11.9081 6.92259C11.7519 6.76631 11.6641 6.55435 11.6641 6.33333ZM18.3307 9.2375V16.3333C18.3294 17.438 17.89 18.497 17.1089 19.2782C16.3278 20.0593 15.2687 20.4987 14.1641 20.5H5.83073C4.72607 20.4987 3.66703 20.0593 2.88591 19.2782C2.1048 18.497 1.66539 17.438 1.66406 16.3333V4.66667C1.66539 3.562 2.1048 2.50296 2.88591 1.72185C3.66703 0.940735 4.72607 0.501323 5.83073 0.5L9.59323 0.5C9.72906 0.5 9.86323 0.510833 9.9974 0.52V6.33333C9.9974 6.99637 10.2608 7.63226 10.7296 8.1011C11.1985 8.56994 11.8344 8.83333 12.4974 8.83333H18.3107C18.3199 8.9675 18.3307 9.10167 18.3307 9.2375ZM13.3307 14.6667C13.3307 14.4457 13.2429 14.2337 13.0867 14.0774C12.9304 13.9211 12.7184 13.8333 12.4974 13.8333H10.8307V12.1667C10.8307 11.9457 10.7429 11.7337 10.5867 11.5774C10.4304 11.4211 10.2184 11.3333 9.9974 11.3333C9.77638 11.3333 9.56442 11.4211 9.40814 11.5774C9.25186 11.7337 9.16406 11.9457 9.16406 12.1667V13.8333H7.4974C7.27638 13.8333 7.06442 13.9211 6.90814 14.0774C6.75186 14.2337 6.66406 14.4457 6.66406 14.6667C6.66406 14.8877 6.75186 15.0996 6.90814 15.2559C7.06442 15.4122 7.27638 15.5 7.4974 15.5H9.16406V17.1667C9.16406 17.3877 9.25186 17.5996 9.40814 17.7559C9.56442 17.9122 9.77638 18 9.9974 18C10.2184 18 10.4304 17.9122 10.5867 17.7559C10.7429 17.5996 10.8307 17.3877 10.8307 17.1667V15.5H12.4974C12.7184 15.5 12.9304 15.4122 13.0867 15.2559C13.2429 15.0996 13.3307 14.8877 13.3307 14.6667Z" fill="#4598F8"/>
</g>
<defs>
<clipPath id="clip0_10340_3997">
<rect width="20" height="20" fill="white" transform="translate(0 0.5)"/>
</clipPath>
</defs>
</svg>
